<svg width="180" height="30" viewBox="0 0 180 30" fill="none" xmlns="http://www.w3.org/2000/svg">
<mask id="mask0_1_57" style="mask-type:alpha" maskUnits="userSpaceOnUse" x="0" y="0" width="30" height="30">
<circle cx="15" cy="15" r="15" fill="white"/>
</mask>
<g mask="url(#mask0_1_57)">
<path d="M21.9984 0L15.5 -1.5L8.9984 0C7.3484 0 0 6.6 0 8.25L-2 20C-2 21.65 7.34944 30 8.99944 30H21.9984C23.6484 30 29 24.65 29 23L32 9.5C32 7.85 23.6484 0 21.9984 0ZM20.4984 3V7.5H17.4984C16.5984 7.5 15.9984 8.1 15.9984 9V12H20.4984V16.5H15.9984V27H11.4984V16.5H8.4984V12H11.4984V8.25C11.4984 5.4 13.8984 3 16.7484 3H20.4984Z" fill="#262626"/>
</g>
<mask id="mask1_1_57" style="mask-type:alpha" maskUnits="userSpaceOnUse" x="50" y="0" width="30" height="30">
<g clip-path="url(#clip0_1_57)">
<path d="M77.8364 0H52.1636C50.9686 0 50 0.968628 50 2.16362V27.8364C50 29.0314 50.9686 30 52.1636 30H77.8364C79.0314 30 80 29.0314 80 27.8364V2.16362C80 0.968628 79.0314 0 77.8364 0V0ZM60.6412 22.6758H56.988V11.6851H60.6412V22.6758ZM58.8147 10.1843H58.7909C57.565 10.1843 56.7722 9.34044 56.7722 8.28575C56.7722 7.20726 57.5893 6.38672 58.839 6.38672C60.0887 6.38672 60.8577 7.20726 60.8815 8.28575C60.8815 9.34044 60.0887 10.1843 58.8147 10.1843ZM73.8138 22.6758H70.1611V16.796C70.1611 15.3184 69.6321 14.3106 68.3103 14.3106C67.3012 14.3106 66.7001 14.9904 66.436 15.6466C66.3394 15.8814 66.3158 16.2096 66.3158 16.5381V22.6758H62.6629C62.6629 22.6758 62.7107 12.7162 62.6629 11.6851H66.3158V13.2413C66.8013 12.4924 67.6699 11.4272 69.6081 11.4272C72.0116 11.4272 73.8138 12.998 73.8138 16.3737V22.6758Z" fill="white"/>
</g>
</mask>
<g mask="url(#mask1_1_57)">
<circle cx="65" cy="15" r="15" fill="#262626"/>
</g>
<rect x="100" width="30" height="30" rx="15" fill="#262626"/>
<g clip-path="url(#clip1_1_57)">
<path d="M118.669 7H111.331C108.943 7 107 8.94287 107 11.331V18.669C107 21.0571 108.943 23 111.331 23H118.669C121.057 23 123 21.0571 123 18.669V11.331C123 8.94287 121.057 7 118.669 7V7ZM115 19.3749C112.588 19.3749 110.625 17.4123 110.625 15C110.625 12.5876 112.588 10.6251 115 10.6251C117.412 10.6251 119.375 12.5876 119.375 15C119.375 17.4123 117.412 19.3749 115 19.3749ZM119.479 11.6569C118.767 11.6569 118.187 11.077 118.187 10.3641C118.187 9.65124 118.767 9.07129 119.479 9.07129C120.192 9.07129 120.772 9.65124 120.772 10.3641C120.772 11.077 120.192 11.6569 119.479 11.6569Z" fill="white"/>
<path d="M115.001 11.5632C113.106 11.5632 111.564 13.105 111.564 15.0001C111.564 16.8952 113.106 18.4371 115.001 18.4371C116.896 18.4371 118.438 16.8952 118.438 15.0001C118.438 13.105 116.896 11.5632 115.001 11.5632Z" fill="white"/>
<path d="M119.479 10.0093C119.284 10.0093 119.125 10.1685 119.125 10.364C119.125 10.5596 119.284 10.7187 119.479 10.7187C119.675 10.7187 119.834 10.5597 119.834 10.364C119.834 10.1683 119.675 10.0093 119.479 10.0093Z" fill="white"/>
</g>
<mask id="mask2_1_57" style="mask-type:alpha" maskUnits="userSpaceOnUse" x="150" y="0" width="30" height="30">
<g clip-path="url(#clip2_1_57)">
<path d="M177.836 0H152.164C150.969 0 150 0.968628 150 2.16362V27.8364C150 29.0314 150.969 30 152.164 30H177.836C179.031 30 180 29.0314 180 27.8364V2.16362C180 0.968628 179.031 0 177.836 0V0ZM171.849 11.6954C171.855 11.843 171.859 11.9913 171.859 12.1404C171.859 16.6898 168.396 21.936 162.063 21.9363H162.063H162.063C160.118 21.9363 158.309 21.3663 156.785 20.3897C157.055 20.4215 157.329 20.4373 157.607 20.4373C159.22 20.4373 160.704 19.8871 161.883 18.9635C160.376 18.9356 159.105 17.9402 158.666 16.5722C158.876 16.6125 159.092 16.6344 159.313 16.6344C159.628 16.6344 159.932 16.5921 160.221 16.5131C158.646 16.1977 157.459 14.8055 157.459 13.1383C157.459 13.1227 157.459 13.1087 157.46 13.0943C157.924 13.3523 158.454 13.5075 159.019 13.5249C158.095 12.908 157.487 11.8536 157.487 10.659C157.487 10.0282 157.657 9.43726 157.953 8.92845C159.651 11.0117 162.188 12.3818 165.05 12.5258C164.991 12.2736 164.96 12.0108 164.96 11.7407C164.96 9.84009 166.502 8.29811 168.404 8.29811C169.394 8.29811 170.289 8.71674 170.917 9.38599C171.701 9.23126 172.438 8.9447 173.103 8.55034C172.846 9.35394 172.3 10.0282 171.589 10.4546C172.286 10.3713 172.949 10.1866 173.566 9.91241C173.105 10.603 172.521 11.2095 171.849 11.6954Z" fill="white"/>
</g>
</mask>
<g mask="url(#mask2_1_57)">
<circle cx="165" cy="15" r="15" fill="#262626"/>
</g>
<defs>
<clipPath id="clip0_1_57">
<rect width="30" height="30" fill="white" transform="translate(50)"/>
</clipPath>
<clipPath id="clip1_1_57">
<rect width="16" height="16" fill="white" transform="translate(107 7)"/>
</clipPath>
<clipPath id="clip2_1_57">
<rect width="30" height="30" fill="white" transform="translate(150)"/>
</clipPath>
</defs>
</svg>
